<?xml version="1.0" encoding="utf-8"?>
<!-- Generator: Adobe Illustrator 24.0.1, SVG Export Plug-In . SVG Version: 6.00 Build 0)  -->
<svg version="1.1" id="Layer_1" xmlns="http://www.w3.org/2000/svg" xmlns:xlink="http://www.w3.org/1999/xlink" x="0px" y="0px"
	 viewBox="0 0 79.6 15.4" style="enable-background:new 0 0 79.6 15.4;" xml:space="preserve">
<style type="text/css">
	.st0{fill:#FFFFFF;}
	.st1{fill-rule:evenodd;clip-rule:evenodd;fill:#EF5444;}
</style>
<g>
	<path class="st0" d="M21.4,10.1L21,11h-2.1l2.7-6.3h2.1l2.6,6.3H24l-0.3-0.9H21.4z M22.6,6.8l-0.7,1.8h1.3L22.6,6.8z"/>
	<path class="st0" d="M29.8,4.7c1.5,0,2.5,0.6,2.5,1.6c0,0.6-0.4,1.1-1.1,1.3c0.8,0.2,1.2,0.8,1.2,1.6c0,1.1-1,1.8-2.5,1.8h-3.3V4.7
		C26.6,4.7,29.8,4.7,29.8,4.7z M28.7,7.1h1c0.3,0,0.5-0.2,0.5-0.5c0-0.3-0.2-0.4-0.5-0.4h-1V7.1z M28.7,9.5h1c0.4,0,0.6-0.2,0.6-0.5
		c0-0.3-0.3-0.5-0.6-0.5h-1C28.7,8.5,28.7,9.5,28.7,9.5z"/>
	<path class="st0" d="M38.5,5.4l-0.8,1.6c-0.6-0.4-1.6-0.7-2.2-0.7c-0.2,0-0.4,0.1-0.4,0.3c0,0.8,3.3,0.3,3.3,2.6c0,1.4-1.2,2-2.6,2
		c-1.1,0-2.3-0.4-3.1-1l0.8-1.6c0.6,0.5,1.8,1,2.4,1c0.3,0,0.5-0.1,0.5-0.3c0-0.8-3.3-0.3-3.3-2.5c0-1.3,1.1-2,2.7-2
		C36.8,4.6,37.8,4.9,38.5,5.4z"/>
	<path class="st0" d="M42.5,6.4V11h-2.1V6.4h-1.8V4.7h5.7v1.6C44.3,6.4,42.5,6.4,42.5,6.4z"/>
	<path class="st0" d="M47.6,9.4h-0.8V11h-2.1V4.7h3c1.7,0,2.7,0.8,2.7,2.3c0,0.9-0.4,1.6-1,2l1.2,2h-2.3L47.6,9.4z M47.8,7.8
		c0.4,0,0.7-0.3,0.7-0.8c0-0.5-0.3-0.7-0.7-0.7h-1v1.5H47.8z"/>
	<path class="st0" d="M53.2,10.1L52.9,11h-2.1l2.7-6.3h2.1l2.6,6.3h-2.2l-0.3-0.9H53.2z M54.4,6.8l-0.7,1.8H55L54.4,6.8z"/>
	<path class="st0" d="M64,5.8l-1.2,1.4c-0.4-0.5-0.9-0.8-1.4-0.8c-0.8,0-1.3,0.6-1.3,1.4c0,0.8,0.5,1.5,1.3,1.5c0.4,0,1-0.3,1.4-0.7
		L64,9.8c-0.7,0.8-1.8,1.3-2.7,1.3c-1.9,0-3.3-1.4-3.3-3.2c0-1.8,1.4-3.2,3.4-3.2C62.3,4.7,63.4,5.1,64,5.8z"/>
	<path class="st0" d="M67.9,6.4V11h-2.1V6.4H64V4.7h5.7v1.6C69.7,6.4,67.9,6.4,67.9,6.4z"/>
</g>
<path class="st1" d="M1.4,13.4h1L4,10.9c1.9,0,3.8,0,5.7,0L8.5,9.1L8,9.9l0.1,0.2c-1.2,0-2.4,0-3.6,0C5.6,8.4,6.7,6.7,7.8,5L9,3
	L8.5,2.2C6.1,6,3.8,9.7,1.4,13.4L1.4,13.4z M8.5,7.3l2.8,4.4l2.2,0l0.6,0.9c-1.1,0-2.2,0-3.3,0l-0.5-0.8c-1.9,0-3.8,0-5.7,0l-1,1.6
	l1,0l0.5-0.8h4.6l0.5,0.8c1.8,0,3.6,0,5.4,0l-1.6-2.5c-0.7,0-1.4,0-2.2,0L9.1,6.5c0.4-0.6,0.7-1.1,1.1-1.7L9.6,3.9
	C8.5,5.7,7.4,7.5,6.2,9.3h1C7.7,8.6,8.1,7.9,8.5,7.3L8.5,7.3z M10.1,6.4l2.3,3.6h1l-2.8-4.4L10.1,6.4L10.1,6.4z"/>
</svg>
