<?xml version="1.0" encoding="utf-8"?>
<!-- Generator: Adobe Illustrator 24.0.1, SVG Export Plug-In . SVG Version: 6.00 Build 0)  -->
<svg version="1.1" id="Layer_1" xmlns="http://www.w3.org/2000/svg" xmlns:xlink="http://www.w3.org/1999/xlink" x="0px" y="0px"
	 viewBox="0 0 685 54.4" style="enable-background:new 0 0 685 54.4;" xml:space="preserve">
<style type="text/css">
	.st0{fill:#2A2B2A;}
</style>
<g transform="translate(-4.481 -10.833)">
	<g transform="translate(4.481 10.833)">
		<path class="st0" d="M677.3,29.5c2.3,2.1,4.6,4.1,6.9,6.2c1,0.8,1,3.3,0.3,4.2c-0.3,0.6-0.9,1.2-0.8,1.8c0.1,1-0.5,2-1.6,2.2
			c-1.8,0.6-3.7,1.1-5.7,0c-1.5-0.8-3.2-1.2-4.9-1.4c-1.7-0.5-3.5-0.8-5.2-0.9c-2.2-0.1-4.6,0.1-6.8,0.1c-2.1,0.2-4.2,0.1-6.2-0.2
			c-2.7-0.6-5.3-0.7-7.8-2.2c-1.5-0.7-3.1-0.9-4.7-0.7c-1.5,0.1-3-0.3-4.2-1.2c-0.9-0.5-2-0.8-3-0.8c-3,0-6-0.4-9-0.6
			c-4.7-0.3-9.4-0.8-13.9-1.1c-1,0-1.7-0.8-2.9-0.7c-4,0.1-8.1-0.4-12.2-0.7c-2.1-0.1-4.2,0-6.3-0.1c-4.8-0.2-9.6-0.6-14.4-0.9
			c-1.8-0.1-3.5,0-5.2,0c-2-0.1-4.1,0.6-6-0.9c-0.5-0.4-1.1-0.5-1.7-0.3c-2.5,0.6-5.2,0.4-7.7-0.3c-0.2,0-0.4-0.1-0.6,0
			c-4.7,1.2-9.2-0.2-13.8,0.3c-0.3,0-0.5,0-0.8-0.1c-3.5-1-6.9-0.8-10.5-0.9c-2.7,0-5.2-0.3-7.9-0.6c-0.3,0-0.8-0.2-1,0
			c-1.8,1.7-4,0.6-5.9,0.9c-0.5,0.1-1,0-1.3-0.3c-1.4-1.2-3-0.7-4.5,0.1c-0.3,0.2-0.7,0.3-1,0.4c-1-1.3-2.3-0.4-3.5-0.2
			c-3,0.8-6.1-0.1-9.1-0.2c-0.8,0-1.6-0.2-2.3-0.2c-1.7-0.1-3.2,0-4.6-1.3c-0.7-0.7-1.9-0.7-2.6,0c-0.1,0.1-0.2,0.3-0.3,0.5
			c-0.9,1.2-3.7,1.4-5.2,1c-4.2-1.2-8.6-2.8-13.1-1.7c-2.4,0.6-4.9,1-7.5,1.2c-2.5,0.1-4.9-0.4-7.4-0.6c-1,0-2.1,0-3.1,0.1
			c-0.6,0-1.1,0.2-1.6,0c-3.8-1.4-7.6-0.8-11.4-0.1c-2.5,0.4-5.1-0.2-7.7-0.4c-0.8-0.1-1.6,0-2.3,0.1c-0.8,0.3-1.4,0.9-2.2-0.2
			c-0.1-0.1-0.6,0-0.9,0c-1.1,0-2.2,0.1-3.3,0.1c-0.4,0.1-1.1-0.1-1.3,0.1c-1.8,2-3.9,0.7-5.9,0.6c-0.3,0-0.7-0.3-0.9-0.2
			c-3.3,1.1-6.6,0.4-9.9,0.4c-2.3,0-4.8,0.2-7.1,0.3c-0.3,0-0.7,0.1-1,0.1c-1.9,0-3.7,0-5.6-0.2c-0.9,0-1.8-0.6-2.8-0.7
			c-0.3-0.1-0.9,0-1,0.2c-0.8,0.9-1.7,0.7-2.8,0.6c-3.2-0.2-6.3-0.7-9.6,0.1c-2.6,0.6-5.3,0.7-7.9,0.3c-3-0.3-6,0.1-9,0.2
			c-1.2,0-2.6,0.1-3.8,0c-0.5,0-0.9-0.2-1.2-0.6c-0.7-0.8-2-1-2.9-0.4c-1.6,1-2.6,0.2-3.8-0.7s-1.4-0.9-1.6,0.7
			c-0.1,0.9-0.6,1.2-1.3,1.1c-2.1-0.1-4.2-0.1-6.3-0.3c-0.6,0-1.1-0.3-1.4-0.7c-1.3-1-3.1-1.1-4.6-0.4c-2.4,1-4.9,1.5-7.5,1.3
			c-1.4-0.1-2.8,0.4-4.2,0.7c-0.7,0.1-1.3,0-2,0.1c-1.4,0-2.8,0.2-4.1,0.4c-1.9,0.6-3.6,0-5.2-0.6c-0.8-0.4-1.7-0.7-2.7-0.8
			c-1-0.3-2.2,0.2-2.7,1.1c-0.6,1.1-1.7,1.6-2.9,1.3h-0.2c-2.4-0.6-5-0.6-7.5,0c-0.8,0.3-1.7,0-2.1-0.8c-0.7-1.4-1.9-1-2.9-0.7
			c-0.4,0.2-0.8,0.4-1.1,0.7c-0.9,1-1.8,0.7-2.7-0.1c-0.6-0.5-1.3-0.8-2.1-0.9c-2.1-0.1-4.2,0.1-6.3,0.1c-2.3,0-4.8-0.1-7.1,0
			c-0.8,0.1-1.6,0.3-2.3,0.7c-2.1,0.6-4.3,0.8-6.5,0.6c-2-0.1-3.9-0.3-5.6,1.3c-0.2,0.3-1.1,0-1.7,0c-1.9-0.3-3.9-1.2-5.7-0.8
			c-2.8,0.9-5.5,0.3-8.2,0.6c-1.4,0.1-2.8-0.1-4.2-0.3c-1.8-0.1-3.8-0.8-5.2-0.1c-2.7,1.1-5.2,0.6-7.9,1c-1.3,0.3-2.7,0.3-4,0.1
			c-3.3-0.4-6.6-0.2-9.9,0.4c-0.7,0-1.4-0.1-2.1-0.3c-2-0.3-4-1.1-5.9,0.2c-0.2,0.2-0.6,0.3-0.9,0.3c-2.8,0.2-5.7,0.3-8.5,0.7
			c-1.9,0.2-3.8-0.1-5.6-0.7c-0.8-0.2-1.6-0.1-2.3,0.1c-2.2,0.6-4.6,1.2-6.8,0.9c-1.4-0.1-2.8,0-4.1,0.1c-5,0.4-10,0.8-15.1,1.3
			c-2.9,0.3-5.9,1.1-8.8,1.6c-1.9,0.3-3.9,0.2-5.9,0.4c-2.2,0.3-4.5,0.9-6.8,1.1c-2.8,0.3-5.7,0.4-8.5,0.7c-2.7,0.2-5.3,0.3-7.9,0.6
			c-2.2,0.3-4.5,1-6.6,1.4c-0.8,0.2-1.7-0.1-2.3,0.1c-1.1,0.3-2.6,0.1-3.5,1.2h-0.8c-3.5,0.1-7,0.3-10.5,0.6
			c-1.4,0.1-2.8,0.4-4.2,0.8c-2.8,0.8-5.7,1.1-8.6,0.9c-1.3-0.2-2.8,0.4-4.2,0.8c-1.5,0.4-3.1,0.2-4.5-0.6c-0.7-0.4-1.5-0.5-2.3-0.3
			c-2.4,0.6-5.1,1.3-7.6,2c-1.9,0.6-3.8,1.1-5.7,1.6c-2.9,0.7-5.9,1.1-8.9,1.6c-4.2,0.6-8.6,0.4-12.7-0.8c-0.9-0.1-1.8,0.1-2.7,0.4
			c-0.7,0.2-1.2,0.6-2,0.8c-1.3,0.2-2.6,0.6-3.7,1.3c-1.1,0.9-2.7,0.7-4.2,0.2c-1.1-0.4-2.3-0.4-3.5-0.2c-1.6,0.2-3,0.3-4.2-0.7
			c-1.1-0.8-2.4-1.2-3.8-1c-2.8,0.2-4.8-0.8-5.6-4.9c-0.1-0.3-0.1-0.8-0.2-0.9c-1.9-2.1-1-4.7-1.2-7.1c-0.2-2.9,2-4.5,3-6.7
			c1.8-3.9,5.3-6,8.6-8.2c1-0.6,2.1-0.9,3.2-1.1c2-0.7,4.2-1.3,6.2-1.9c0.9-0.1,1.8-0.2,2.7-0.2c0.2,0,0.3,0.2,0.6,0.2
			c2.8-0.2,5.6,0.4,8.2-0.4c0.3-0.1,0.7-0.2,1-0.2c1.9,0.3,3.8,0,5.5-1c0.4-0.2,0.9-0.2,1.3,0c2.8,0.9,5.5,0.2,8.1-0.1
			c2.3-0.2,4.7-0.7,7.1-1s5-0.6,7.5-0.8c3.9-0.4,7.9-0.9,11.8-1.3c4.5-0.3,9-0.6,13.6-0.9c2.3-0.2,4.6-0.6,6.9-0.9
			c0.7-0.1,1.4-0.1,2.1,0c1.6,0.2,3.2,0.4,4.7-0.3c0.5-0.3,1.2-0.4,1.8-0.2c1.8,0.4,3.7,0.3,5.5-0.3c1.5-0.6,3.1-0.7,4.6-0.2
			c0.2,0.1,0.6,0,0.8,0c4.1-1.4,8.2-0.4,12.5-0.9c1.2-0.1,2.4-0.4,3.7-0.6c0.2-0.1,0.5-0.2,0.8-0.2c2.6-0.2,5.1-0.4,7.7-0.6
			c2.4-0.2,5,0,7.4-0.6c3.4-0.5,6.7-0.7,10.1-0.6c3.9-0.1,7.7-0.6,11.6-1c0.7-0.1,1.5-0.2,2.2-0.2c2,0.1,4,0,5.9-0.4
			c1.8-0.4,3.8-0.1,5.8-0.2c3.1-0.2,6.1-0.4,9.2-0.7c4.9-0.2,9.7-0.4,14.6-0.6c2.2-0.1,4.5-0.4,6.8-0.6c3.2-0.2,6.5-0.2,9.7-0.4
			c2-0.1,4-0.3,6.1-0.4c1-0.1,2.1-0.1,3.1-0.1c1.4,0,2.9-0.1,4.3-0.1c0.4,0,1-0.2,1.3,0.1c1.9,0.9,3.8,0.3,5.7,0.1
			c0.2,0,0.6-0.2,0.8-0.2c2.4,0.1,4.7-0.1,7-0.6c3.3-0.5,6.6-0.6,9.9-0.3c2.3,0.1,4.6-0.6,6.8-0.6c2.7,0,5.5,0.2,8.1,0.2
			c1.9,0,3.9-0.2,5.8-0.4c0.2,0,0.3-0.1,0.6-0.2c3.6,0,7-0.1,10.6-0.1c1.3,0,2.7-0.1,4-0.1c2.3-0.1,4.7-0.2,7-0.2
			c1.4,0.1,2.9,0.1,4.3,0c2.8-0.4,5.6,1.2,8.2,0.1c0.6-0.3,1.4,0,2.2,0c0.3,0,0.8,0.1,1,0c3.2-1.6,6.5-0.8,9.8-0.9
			c2,0,3.9-0.4,5.9-0.6c0.8,0,1.6,0.1,2.5,0.2c0.4,0,0.8,0.1,1.2,0.1c3.2-0.4,6.5-0.4,9.7,0.1h0.4c1.9-0.6,3.9-1.2,5.8-1.8
			c0.5-0.1,1-0.2,1.4-0.1c1.4,0.1,3,0.1,4.5,0.2c0.1,0,0.3-0.2,0.3-0.1c2.1,1.7,4.8-0.8,7.1,1.1c1.3,1.2,2.6,0.4,3.5-0.9
			c0.2-0.3,1-0.7,1.3-0.4c1,0.4,2.1,0.4,3.1,0c0.7-0.1,1.4,0,2.1,0.2c2.2,0.6,4.1,1.3,6.6,0.3c1.4-0.6,3.5-0.1,5.1,0
			c1.4,0.4,2.9,0.3,4.2-0.3c0.9-0.4,2.1-0.1,3.2-0.1c4,0.2,8.1,0.8,12.1,0.6c2.2-0.1,4.5,0.7,6.7,0.3c1.9-0.3,3.8-0.4,5.7-0.4
			c2.6-0.1,5-0.2,7.6-0.1c1.2,0,2.6,0.1,3.8,0.2c1.9,0.1,3.8-0.6,5.7,0.6c0.2,0.1,0.4,0.1,0.6,0c2-1.3,4.1-0.2,6.1-0.3
			c4.7-0.3,9.5,0.3,14.1,0.3c3.2-0.1,6.5-0.2,9.8-0.2c3,0,6.1,0.3,9.1,0.2c2.2,0,4.3-0.3,6.6-0.3c1.3,0,2.5,0.1,3.8,0.3
			c0.4,0,1,0.3,1.3,0.3c4-1,8.1,0.9,12-0.2c0.3-0.1,0.9-0.2,1.1,0.1c1.9,1.2,4.2,0.7,6.2,0.7c0.2,0,0.6-0.1,0.8-0.1
			c3.6,0.9,7.4,1.1,11.1,0.8h0.2c1.6,1.1,3.1,0.4,4.8,0.2c2.2-0.3,4.5-0.6,6.7-0.9c0.3-0.1,0.7-0.1,1-0.1c4.7,1.2,9.6,0.2,14.4,0.6
			c2.6,0.1,5,0.3,7.6,0.6c1.6,0.1,3-0.1,4.6,0s3.2,0.2,4.8,0.4c1.9,0.4,3.9,0.6,5.9,0.3c1.9-0.2,3.7-0.1,5.6,0.2
			c3.3,0.3,6.7,0.6,10,0.9h0.4c3.1,1.1,6.5,0.1,9.7,0.4c2.9,0.2,5.7,0.7,8.6,1c0.4,0,0.8,0,1.2,0.1l4.7,0.7c0.4,0,0.9,0.1,1.4,0.1
			c2,0,4.1,0.3,5.9-0.3c2.5-0.9,4.6,0.2,6.9,0.2c2.3-0.1,4.8,0.4,7.2,0.4c1.3,0.1,2.7-0.2,4,0.1c3.8,0.8,7.6,1.1,11.2,1.7
			c0.9,0,1.8,0,2.7-0.1c0.6,0,1.1,0.6,1.7,0.6c3.2,0,6.3,0.1,9.6,0.1c0.2,0,0.6-0.1,0.8,0c4.1,1,8.1,1.8,11.4,4.8
			c0.9,0.8,2.1,1.3,3,2.2c1.1,1.3,2.1,2.8,3.1,4.1s2.1,2.8,3.2,4.1c0.8,0.8,1.1,3,0.3,3.7c-0.5,0.3-1.1,0.5-1.7,0.3
			c-1.4-0.3-2.9-0.9-4.2-1.2c-0.6-0.1-1.2-0.1-1.8,0C677.4,29.2,677.4,29.4,677.3,29.5z M307.6,14.2c-0.9,0.9-4,1.7-4.6,1
			c-0.9-1.2-1.6-0.3-2.3-0.1c-2,0.6-4.1,1.7-6.1,1.4c-2.1-0.1-4.1-0.9-5.8,1.1c-0.1,0.1-0.2,0.1-0.3,0.1c-1.8-0.3-3.6-0.4-5.3-0.8
			c-1.8-0.4-3.5-1-5.2-0.3c-1.3,0.1-2.6,0-3.9-0.2c-0.8,0-1.8-0.3-2.2,0.1c-1.7,1.2-3.2,0.7-5,0.6c-2.3-0.2-4.6-0.7-6.9-0.2
			c-2.3,0.3-4.7,0.2-7.2,0.3c-0.4,1-0.4,1-2,0.8c-0.4,0-0.9,0.1-1.2,0.1c-1.6,0.4-3.2,1.6-4.8,0c-0.3-0.2-1-0.1-1.6-0.2
			c-0.8,0-1.6,0.2-2.4,0.3c-1.7,0.4-3.7-1-5.1,1c-0.1,0.1-0.7,0-1,0.1c-1.3,0.1-2.6,0.3-3.9,0.4c-0.9,0.1-1.8,0.2-2.7,0.1
			c-0.7-0.2-1.5-0.4-2.1-0.8c-1.1-0.4-2-0.6-2.9,0.6c-0.3,0.4-1.3,0.6-2,0.6c-2.7-0.1-5.3-0.4-8-0.8c-1,0.1-1.9,0.2-2.9,0.3
			c-2,0.1-4.1,0-6.1-0.2c-1.2-0.2-3.3-0.2-3.6,0.8c-0.4,1.4-1.2,0.9-2,1c-0.9,0-1.9,0.1-2.8,0.2c-0.6,0.2-1,0.8-1.4,0.9
			c1,0.7,1.7,1.4,2.4,1.9c0.4,0.2,0.9,0.4,1.3,0.4c3.2,0,6.5,0,9.7-0.1s6.5,0.2,9.7-0.7c3.3-0.9,6.8,0.2,10.2-0.4
			c3.7-0.7,7.7-0.6,11.5-0.7c0.9-0.1,1.9,0.4,2.9,0.7c0.5,0.2,1,0.3,1.4,0.4c1.6-0.1,3-0.3,4.5-0.6c2.7-0.4,5.3-0.9,8.1-1.2
			c0.2,0,0.6,0.1,0.8,0.1c1.1,0.2,2.2,0.3,3.3,0.3c1.4,0,3-0.7,4.5-0.6c2.1,0,4.2,0.6,6.3,0.7c2.1,0.1,4.2,0.1,6.3-0.1
			c2.1-0.3,4.3,0.1,6.5-0.6c0.3,0.1,0.5,0.2,0.7,0.4c0.7,1,2.1,1.2,3.1,0.6c2.1-1.2,4.4-1.6,6.8-1.3c1,0.1,2-0.3,3.2,0.6
			c0.7,0.6,2.1,0.1,3.3,0.1c0.1,0,0.2,0.1,0.3,0.1c0.6,0,1.1,0.2,1.6,0c1-0.7,2-0.2,3.1-0.1c2,0.1,3.9,0.2,5.9,0.1
			c1.3,0,2.6-0.4,3.8-0.6c0.3-0.1,0.9-0.2,1-0.4c0.8-1.1,1.7-1,2.8-0.8c1.2,0.3,2.5,0.7,3.7,0.9c3.3,0.4,6.7,1,9.9,0.2
			c1.3-0.1,2.7,0,4,0.2c0.6,0,1.2-0.1,1.8-0.2c2-0.3,4.1-1.1,6-0.8c2.8,0.3,5.6,0.3,8.4,0c1.9-0.1,3.7,0.2,5.6-0.1
			c1.1-0.2,2.8,1,3.8,0.8c2-0.6,4-0.1,5.9-0.2c0.1,0,0.1,0,0.2-0.1c1.7-0.3,3.4-0.4,5.1-0.4c1.9,0.1,3.7,0,5.6-0.2
			c2.8-0.2,5.6-0.2,8.4-0.2c1.1,0,2.2,0.4,3.3,0.6c2.6,0,5.2-0.1,7.8,0c2,0,4,0.3,6,0.2c3.3-0.1,6.8-0.6,10.1-0.7
			c0.9,0,1.9,0.1,2.8,0.2c2,0,4-0.1,5.9-0.1c0.6,0,1.2-0.1,1.8-0.1c3.2,0.1,6.6,0.3,9.8,0.6c0.9,0.1,1.9,0.2,2.8,0.2
			c2.8-0.3,5.6-0.7,8.5-1c0.3,0,0.7,0.1,1,0.1c1.4,0.1,2.9,0,4.3,0.1c0.7,0,1.3,0.1,2,0.1c1.7,0.2,3.2,0.4,4.9,0.6
			c1.5,0,3-0.2,4.5-0.4c4.1-0.4,8.1,0.9,12.2,0.4c2.9-0.3,5.9,0.2,8.8,0c3.9-0.2,7.9,1,11.7-0.4c0.3-0.1,0.7-0.1,1,0
			c3.5,0.2,6.9,0.3,10.4,0.7c2.5,0.4,5-0.9,6.2-3.1c-0.4-0.7-0.7-1.4-0.8-2.2c0.3-0.6,1.2-0.6,1.9-0.9c-2.1-0.6-4.3-1-6.6-1.2
			c-0.3,0-0.7,0.2-1,0.2c-1.3,0.1-2.7,0.3-4,0.6c-0.6,0.1-1.3,0.4-1.3,0.7c-0.2,1.3-0.8,1.2-1.9,1.2c-1.6,0-2.1-1-2.9-1.7
			c-0.6-0.3-1.1-0.9-1.7-0.9c-1.7,0-3.3,0.1-4.9,0.2c-0.6,0-1.2-0.1-1.8-0.4c-2.2-1.7-4.7-1.4-7.2-0.9c-0.4,0.1-1,0.6-1.3,0.3
			c-1-0.5-2.1-0.1-2.7,0.8c-0.9-0.3-1.4-1-2.1-1c-1.6-0.1-3.2,0-4.8,0c-0.8,0.2-1.6,0.3-2.3,0.2c-2.9-0.7-5.7,0.2-8.5,0.1
			c-1.9-0.1-4.8-0.2-4.8,3.3c0,1.3-2.2,2.5-3,1.9c-0.8-0.5-1.4-1.3-1.8-2.1c-0.2-0.8-0.3-1.6-0.2-2.5c-0.7,0-1.3-0.1-2.1-0.1
			c-2.6-0.2-5-0.6-7.6-0.8c-0.7-0.1-1.3-0.1-2,0c-2.8,1-5.7-0.2-8.5-0.2c-1.9,0-3.9-1.1-5.8-0.2c-0.3,0.1-0.7,0.1-1,0.1
			c-2-0.1-3.9,0.7-6.1,0.1c-1.7-0.4-3.7,0.3-5.5,0.3c-3.3,0.2-6.6,0.1-9.8-0.4c-3.3-0.7-6.1-0.7-8.9,1.4c-0.8,0.7-2.6,1-3.1,0.6
			c-1.8-1.6-4-1-5.8-1.4c-0.9-0.3-2-0.1-2.7,0.7c-0.8,0.6-1.8,0.8-2.8,0.7c-2.1-0.2-4.2-0.6-6.2-1.1c-2.6-0.8-5.3-1-7.9-0.7
			c-2.7,0.3-5.6,0.1-8.2,0.8c-2.5,0.4-5,0.4-7.5-0.1c-1.4-0.2-2.9-0.6-4.5,0.2c-1.5,0.9-3.4,1-5,0.4c-1.4-0.6-2.9-0.9-4.2-1.3
			c-0.3-0.1-0.8,0.2-1,0.6c-0.5,0.6-1,1.1-1.6,1.6c-0.4,0.4-1,0.6-1.6,0.4c-1.9-0.3-3.8-0.4-5.7-0.7c-2.3-0.2-4.6-0.1-6.8,0.3
			c-2.2,0.5-4.6,0.3-6.7-0.6c-0.3-0.1-1.7-0.9-1.4,0.7c0,0-0.7,0.3-0.9,0.2C308.3,15.2,307.9,14.8,307.6,14.2z M515.2,17.3
			c-0.3,2,0,2.7,1.9,3.1c1.7,0.4,3.5,0.7,5.3,0.7c2.6,0,5-0.7,7.5,0.7c0.4,0.1,0.8,0.1,1.2,0c3.8,0,7.5-0.1,11.2,0
			c3.9,0.1,7.7,0.4,11.6,0.7c2,0.1,4,0.4,6,0.6c3,0.1,5.9,0.1,8.9,0.3c1.7,0.2,2.3-0.6,2.9-1.9c0.3-0.9,0.6-1.8,0.9-2.8
			c-3.5-0.4-6.7-0.9-9.9-1.1c-1.8-0.1-3.5,0.1-5.2,0.3c-2.7,0.1-3-0.2-2.2-2.8c0-0.1-0.2-0.1-0.6-0.4c-0.1,0.5-0.3,1-0.6,1.4
			c-0.2,1.8-0.6,2-2.3,1.8c-1.7-0.2-3.4-0.3-5.1-0.3c-1.8-0.1-3.6-0.2-5.3-0.2c-0.3,1.3-0.3,1.3-1.4,0.4c-0.3-0.2-0.8-0.2-1.2-0.4
			c-1.1-0.4-2.8-0.3-3.1-1c-0.9-2-2.7-1.7-3.8-1.3c-1.7,0.7-3.7,0.3-5-1.1c-0.6,1.6-2.3,2.4-3.9,2.1c-0.8,0-1.6-0.1-2.2-0.1
			C518.7,16.2,516.9,16.9,515.2,17.3z M574.3,19.6c0.9,2,1.6,4,4.1,3.9c1.6,0,3.1,0,4.7,0.1c2.7,0.1,5.2,0.2,7.9,0.6
			c2.9,0.1,5.6,1.4,8.7,0.7c1.5-0.3,3.1-0.3,4.6,0c4,0.4,8,1.3,12.1,0.7h0.6c3,1.2,6.3,0.7,9.5,1.2c1.3,0.3,2.9-0.2,4.3-0.4
			c0.6-0.2,1-0.5,1.3-1c0-0.6-0.2-1.2-0.7-1.7c-0.5-0.4-1.1-0.6-1.7-0.8c-2-0.3-4-0.9-5.9-0.7c-1.9,0.3-3.8,0.1-5.6-0.6
			c-2.6-0.9-5.3-1-8-1.4c-0.3,0-0.7,0-1,0.1c-1.1,0.2-2.1,0.4-3.2,0.6c-1.7,0-3.3-0.2-5-0.1c-3.4,0.3-6.8,0-10.1-0.8
			c-3.1-0.8-6.6-0.7-9.9-0.8C579,19.2,576.7,19.5,574.3,19.6z M162.8,24c0-0.1-0.1-0.2-0.1-0.3c0.2-0.3,0.3-0.7,0.7-1.1
			c-0.4-0.1-0.9-0.4-1.2-0.3c-1.3,0.6-3.2,0.1-4.1,1.9c-0.3,0.3-0.7,0.4-1.1,0.2c-1.9-0.9-3.7-0.2-5.5,0c-3.1,0.6-6.3,0.7-9.6,1
			c-0.5,0.1-0.9,0-1.3-0.2c-3.5-1.1-6.7-1.1-9.6,1.3c-0.3,0.3-0.6,0.9-1,1.3c0.6,0.2,1.1,0.8,1.6,0.7c1.9-0.3,3.9-1,5.8-0.4
			c0.1,0,0.2,0,0.2-0.1c2-1.2,4.1-0.2,6.2-0.4c3.8-0.3,7.7,1.7,11.5-1h0.2c2.1,0.1,4.2,0.3,6.3,0.6c2.9,0.3,5.6-0.6,8.5-0.9
			c2.3-0.3,4.7-1.4,7.1-0.4c0.9,0.4,1.9,0.5,2.8,0.2c1.6-0.9,3.2-0.3,4.8-0.4c1-0.1,2-0.1,3-0.2c1.3-0.1,2.8-0.2,4.5-0.3
			c0.6-0.8,0.4-1.6-0.6-2.3c-1.1-1.2-2.3-0.6-3.6-0.3c-0.9,0.3-1.8,0.4-2.7,0.4c-1.8-0.1-3.6-0.7-5.3-0.7c-1.4-0.1-2.9-0.1-4.3,0
			h-4.3c-0.8-0.1-1.7,0-2.4,0.2C167.1,22.7,164.9,23.3,162.8,24z M442.9,6c-0.9,0.1-1.9,0.2-2.8,0.2c-2.7-0.1-5.5-0.4-8.1-0.6
			c-0.9,0.1-1.8,0.3-2.7,0.7c-0.2,0.1-0.3,0.6-0.6,0.9c0.3,0.1,0.7,0.4,1,0.3c2.3-0.1,4.8-0.2,7.1-0.3c0.5,0,1,0.1,1.4,0.4
			C440.3,8.4,441.7,7.9,442.9,6z"/>
	</g>
</g>
</svg>
